<?xml version="1.0" encoding="utf-8"?>
<!-- Generator: Adobe Illustrator 22.1.0, SVG Export Plug-In . SVG Version: 6.00 Build 0)  -->
<svg version="1.1" id="Layer_1" xmlns="http://www.w3.org/2000/svg" xmlns:xlink="http://www.w3.org/1999/xlink" x="0px" y="0px"
	 viewBox="0 0 17.4 28.6" style="enable-background:new 0 0 17.4 28.6;" xml:space="preserve">
<style type="text/css">
	.st0{fill:#FFFFFF;}
	.st1{fill:#EF5050;}
	.st2{fill:#FFC547;}
	.st3{fill:#64C4B3;}
</style>
<g>
	<path class="st0" d="M8.7,25.9c-0.7,0-1.4,0.1-2.1,0.4c0.5,0.7,0.9,1.4,1.3,1.9c0.4,0.6,1.3,0.5,1.6,0l1.2-1.9
		C10.1,26,9.4,25.9,8.7,25.9z"/>
	<path class="st1" d="M4.5,10.7c1.4,0,2.6-1.1,2.6-2.6c0-1.4-1.1-2.6-2.6-2.6S2,6.8,2,8.2C2,9.6,3.1,10.7,4.5,10.7z"/>
	<circle class="st2" cx="12.8" cy="2.7" r="2.6"/>
	<path class="st3" d="M8.9,18.8c-2.2,0-4.1,0.9-5.4,2.4c0.1,0.1,1.6,2.6,2.8,4.5c0.8-0.3,1.6-0.5,2.4-0.5c0.8,0,1.6,0.2,2.4,0.4
		c0,0,2.8-4.8,2.9-4.9C12.6,19.6,10.8,18.8,8.9,18.8z"/>
	<path class="st0" d="M8.9,18.8c2,0,3.7,0.8,5,2c0.9-1.1,1.4-2.5,1.4-4.1V7.2c-3.6,0-6.5,2.9-6.5,6.5v2.6c-0.3-2.2-3.1-4-6.5-4v6.5
		c0,0.9,0.4,1.7,1,2.4C4.8,19.8,6.7,18.8,8.9,18.8z"/>
</g>
</svg>
